<svg width="172" height="58" viewBox="0 0 172 58" fill="none" xmlns="http://www.w3.org/2000/svg">
<path d="M51.6667 5H14.3333C11.4 5 9 7.4 9 10.3333V47.6667C9 50.6027 11.4 53 14.3333 53H33V34.3333H27.6667V27.7333H33V22.2667C33 16.496 36.232 12.4427 43.0427 12.4427L47.8507 12.448V19.3947H44.6587C42.008 19.3947 41 21.384 41 23.2293V27.736H47.848L46.3333 34.3333H41V53H51.6667C54.6 53 57 50.6027 57 47.6667V10.3333C57 7.4 54.6 5 51.6667 5Z" fill="#28252F" fill-opacity="0.5"/>
<path d="M87 5C73.745 5 63 15.745 63 29C63 42.255 73.745 53 87 53C100.255 53 111 42.255 111 29C111 15.745 100.255 5 87 5ZM96.7625 24.66C96.7725 24.865 96.775 25.07 96.775 25.27C96.775 31.52 92.0225 38.7225 83.3275 38.7225C80.6575 38.7225 78.1725 37.9425 76.0825 36.5975C76.45 36.6425 76.8275 36.66 77.21 36.66C79.425 36.66 81.4625 35.9075 83.08 34.6375C81.0125 34.5975 79.2675 33.2325 78.665 31.3575C78.9525 31.41 79.2475 31.44 79.5525 31.44C79.9825 31.44 80.4025 31.3825 80.7975 31.275C78.635 30.84 77.005 28.93 77.005 26.64V26.5825C77.6425 26.935 78.3725 27.15 79.1475 27.175C77.8775 26.325 77.045 24.88 77.045 23.2375C77.045 22.3725 77.2775 21.5575 77.685 20.86C80.0175 23.72 83.4975 25.6 87.4275 25.8025C87.345 25.455 87.305 25.095 87.305 24.7225C87.305 22.115 89.42 19.995 92.0325 19.995C93.39 19.995 94.62 20.57 95.4825 21.49C96.56 21.275 97.57 20.885 98.4825 20.3425C98.13 21.445 97.3825 22.3725 96.405 22.96C97.3625 22.8425 98.2725 22.59 99.12 22.2125C98.4875 23.16 97.685 23.995 96.7625 24.66Z" fill="#28252F" fill-opacity="0.5"/>
<path d="M164.856 19.1048C164.816 17.1138 164.439 15.144 163.74 13.2791C163.137 11.6777 162.193 10.227 160.972 9.02816C159.773 7.80727 158.322 6.86256 156.721 6.25992C154.856 5.56144 152.886 5.18425 150.895 5.14437C148.335 5.02768 147.518 5 141 5C134.482 5 133.665 5.02768 131.105 5.14437C129.114 5.18425 127.144 5.56144 125.279 6.25992C123.678 6.86256 122.227 7.80727 121.028 9.02816C119.807 10.227 118.863 11.6777 118.26 13.2791C117.561 15.144 117.184 17.1138 117.144 19.1048C117.028 21.6647 117 22.4819 117 29C117 35.5181 117.028 36.3353 117.144 38.8952C117.184 40.8862 117.561 42.856 118.26 44.7209C118.863 46.3223 119.807 47.773 121.028 48.9718C122.227 50.1928 123.678 51.1375 125.279 51.7401C127.144 52.4386 129.114 52.8158 131.105 52.8556C133.665 52.9725 134.482 53 141 53C147.518 53 148.335 52.9725 150.895 52.8556C152.886 52.8158 154.856 52.4386 156.721 51.7401C158.315 51.1235 159.763 50.1806 160.972 48.9719C162.181 47.7631 163.123 46.3152 163.74 44.7209C164.439 42.856 164.816 40.8862 164.856 38.8952C164.972 36.3353 165 35.5181 165 29C165 22.4819 164.972 21.6647 164.856 19.1048ZM160.536 38.6981C160.518 40.2199 160.238 41.7274 159.709 43.1545C159.31 44.1896 158.699 45.1296 157.914 45.9141C157.13 46.6986 156.19 47.3101 155.154 47.7093C153.727 48.2382 152.22 48.5178 150.698 48.5358C148.168 48.6512 147.409 48.6756 141 48.6756C134.591 48.6756 133.832 48.6512 131.302 48.5358C129.78 48.5178 128.273 48.2382 126.846 47.7093C125.803 47.3247 124.86 46.7112 124.086 45.9141C123.289 45.1399 122.675 44.1969 122.291 43.1545C121.762 41.7274 121.482 40.2199 121.464 38.6981C121.349 36.1673 121.324 35.4084 121.324 29C121.324 22.5916 121.349 21.8327 121.464 19.3019C121.482 17.7801 121.762 16.2727 122.291 14.8455C122.675 13.8031 123.289 12.8601 124.086 12.0859C124.86 11.2888 125.803 10.6753 126.846 10.2907C128.273 9.76177 129.78 9.48219 131.302 9.46416C133.833 9.3488 134.592 9.32437 141 9.32437C147.408 9.32437 148.167 9.3488 150.698 9.46419C152.22 9.48222 153.727 9.76179 155.154 10.2907C156.197 10.6753 157.14 11.2888 157.914 12.0859C158.711 12.8601 159.325 13.8031 159.709 14.8455C160.238 16.2726 160.518 17.7801 160.536 19.3019C160.651 21.8326 160.676 22.5918 160.676 29C160.676 35.4082 160.651 36.1673 160.536 38.6981V38.6981ZM141 16.6756C138.562 16.6756 136.18 17.3984 134.153 18.7527C132.126 20.1069 130.547 22.0317 129.614 24.2837C128.681 26.5357 128.437 29.0137 128.912 31.4044C129.388 33.7951 130.562 35.9911 132.285 37.7146C134.009 39.4382 136.205 40.612 138.596 41.0876C140.986 41.5631 143.464 41.319 145.716 40.3862C147.968 39.4534 149.893 37.8738 151.247 35.8471C152.602 33.8203 153.324 31.4375 153.324 29C153.324 25.7314 152.026 22.5967 149.715 20.2854C147.403 17.9741 144.269 16.6757 141 16.6756V16.6756ZM141 37C139.418 37 137.871 36.5308 136.555 35.6518C135.24 34.7727 134.214 33.5233 133.609 32.0615C133.003 30.5997 132.845 28.9911 133.154 27.4393C133.462 25.8874 134.224 24.462 135.343 23.3431C136.462 22.2243 137.887 21.4624 139.439 21.1537C140.991 20.845 142.6 21.0035 144.061 21.609C145.523 22.2145 146.773 23.2398 147.652 24.5554C148.531 25.871 149 27.4178 149 29C149 31.1217 148.157 33.1566 146.657 34.6569C145.157 36.1571 143.122 37 141 37ZM156.691 16.1888C156.691 16.7584 156.522 17.3152 156.206 17.7888C155.889 18.2625 155.44 18.6316 154.913 18.8496C154.387 19.0676 153.808 19.1246 153.249 19.0135C152.691 18.9023 152.178 18.628 151.775 18.2253C151.372 17.8225 151.098 17.3093 150.987 16.7507C150.875 16.192 150.933 15.6129 151.15 15.0867C151.368 14.5604 151.738 14.1106 152.211 13.7942C152.685 13.4777 153.242 13.3088 153.811 13.3088C154.575 13.3088 155.308 13.6122 155.848 14.1523C156.388 14.6924 156.691 15.425 156.691 16.1888V16.1888Z" fill="#28252F" fill-opacity="0.5"/>
</svg>
