<svg width="125" height="39" viewBox="0 0 125 39" fill="none" xmlns="http://www.w3.org/2000/svg">
<path d="M37.4444 5H12.5556C10.6 5 9 6.6 9 8.55556V33.4444C9 35.4018 10.6 37 12.5556 37H25V24.5556H21.4444V20.1556H25V16.5111C25 12.664 27.1547 9.96178 31.6951 9.96178L34.9004 9.96533V14.5964H32.7724C31.0053 14.5964 30.3333 15.9227 30.3333 17.1529V20.1573H34.8987L33.8889 24.5556H30.3333V37H37.4444C39.4 37 41 35.4018 41 33.4444V8.55556C41 6.6 39.4 5 37.4444 5Z" fill="#28252F" fill-opacity="0.5"/>
<path d="M63 5C54.1633 5 47 12.1633 47 21C47 29.8367 54.1633 37 63 37C71.8367 37 79 29.8367 79 21C79 12.1633 71.8367 5 63 5ZM69.5083 18.1067C69.515 18.2433 69.5167 18.38 69.5167 18.5133C69.5167 22.68 66.3483 27.4817 60.5517 27.4817C58.7717 27.4817 57.115 26.9617 55.7217 26.065C55.9667 26.095 56.2183 26.1067 56.4733 26.1067C57.95 26.1067 59.3083 25.605 60.3867 24.7583C59.0083 24.7317 57.845 23.8217 57.4433 22.5717C57.635 22.6067 57.8317 22.6267 58.035 22.6267C58.3217 22.6267 58.6017 22.5883 58.865 22.5167C57.4233 22.2267 56.3367 20.9533 56.3367 19.4267V19.3883C56.7617 19.6233 57.2483 19.7667 57.765 19.7833C56.9183 19.2167 56.3633 18.2533 56.3633 17.1583C56.3633 16.5817 56.5183 16.0383 56.79 15.5733C58.345 17.48 60.665 18.7333 63.285 18.8683C63.23 18.6367 63.2033 18.3967 63.2033 18.1483C63.2033 16.41 64.6133 14.9967 66.355 14.9967C67.26 14.9967 68.08 15.38 68.655 15.9933C69.3733 15.85 70.0467 15.59 70.655 15.2283C70.42 15.9633 69.9217 16.5817 69.27 16.9733C69.9083 16.895 70.515 16.7267 71.08 16.475C70.6583 17.1067 70.1233 17.6633 69.5083 18.1067Z" fill="#28252F" fill-opacity="0.5"/>
<path d="M116.904 14.4032C116.877 13.0759 116.626 11.7627 116.16 10.5194C115.758 9.45181 115.128 8.48466 114.315 7.68544C113.515 6.87151 112.548 6.24171 111.481 5.83995C110.237 5.3743 108.924 5.12283 107.597 5.09625C105.89 5.01845 105.345 5 101 5C96.6546 5 96.1098 5.01845 94.4032 5.09625C93.0759 5.12283 91.7627 5.3743 90.5194 5.83995C89.4518 6.24171 88.4847 6.87151 87.6854 7.68544C86.8715 8.48466 86.2417 9.45181 85.8399 10.5194C85.3743 11.7627 85.1228 13.0759 85.0962 14.4032C85.0185 16.1098 85 16.6546 85 21C85 25.3454 85.0185 25.8902 85.0962 27.5968C85.1228 28.9241 85.3743 30.2373 85.8399 31.4806C86.2417 32.5482 86.8715 33.5153 87.6854 34.3146C88.4846 35.1285 89.4518 35.7583 90.5194 36.1601C91.7627 36.6257 93.0759 36.8772 94.4032 36.9038C96.1098 36.9817 96.6546 37 101 37C105.345 37 105.89 36.9817 107.597 36.9038C108.924 36.8772 110.237 36.6257 111.481 36.1601C112.543 35.749 113.509 35.1204 114.315 34.3146C115.12 33.5087 115.749 32.5435 116.16 31.4806C116.626 30.2373 116.877 28.9241 116.904 27.5968C116.982 25.8902 117 25.3454 117 21C117 16.6546 116.982 16.1098 116.904 14.4032ZM114.024 27.4654C114.012 28.48 113.825 29.4849 113.473 30.4363C113.207 31.1264 112.799 31.7531 112.276 32.276C111.753 32.799 111.126 33.2067 110.436 33.4729C109.485 33.8255 108.48 34.0119 107.465 34.0239C105.778 34.1008 105.272 34.1171 101 34.1171C96.7275 34.1171 96.2216 34.1008 94.5346 34.0239C93.52 34.0119 92.5151 33.8255 91.5637 33.4729C90.8687 33.2165 90.2401 32.8075 89.724 32.2761C89.1925 31.76 88.7835 31.1313 88.5271 30.4363C88.1745 29.4849 87.9881 28.48 87.9761 27.4654C87.8992 25.7782 87.8829 25.2722 87.8829 21C87.8829 16.7278 87.8992 16.2218 87.9761 14.5346C87.9881 13.52 88.1745 12.5151 88.5271 11.5637C88.7835 10.8687 89.1925 10.2401 89.7239 9.72396C90.24 9.19253 90.8687 8.78355 91.5637 8.52711C92.5151 8.17451 93.52 7.98813 94.5346 7.97611C96.2218 7.8992 96.7278 7.88292 101 7.88292C105.272 7.88292 105.778 7.8992 107.465 7.97612C108.48 7.98815 109.485 8.17453 110.436 8.52713C111.131 8.78356 111.76 9.19254 112.276 9.72396C112.807 10.2401 113.216 10.8687 113.473 11.5637C113.825 12.5151 114.012 13.52 114.024 14.5346C114.101 16.2217 114.117 16.7279 114.117 21C114.117 25.2721 114.101 25.7782 114.024 27.4654ZM101 12.7838C99.375 12.7838 97.7865 13.2656 96.4353 14.1684C95.0841 15.0713 94.031 16.3545 93.4092 17.8558C92.7873 19.3571 92.6246 21.0091 92.9416 22.6029C93.2586 24.1967 94.0412 25.6607 95.1902 26.8098C96.3393 27.9588 97.8033 28.7414 99.3971 29.0584C100.991 29.3754 102.643 29.2127 104.144 28.5908C105.646 27.969 106.929 26.9159 107.832 25.5647C108.734 24.2135 109.216 22.625 109.216 21C109.216 18.8209 108.351 16.7311 106.81 15.1903C105.269 13.6494 103.179 12.7838 101 12.7838ZM101 26.3333C99.9452 26.3333 98.914 26.0205 98.037 25.4345C97.1599 24.8485 96.4763 24.0155 96.0726 23.041C95.669 22.0664 95.5634 20.9941 95.7691 19.9595C95.9749 18.925 96.4829 17.9746 97.2288 17.2288C97.9746 16.4829 98.925 15.9749 99.9595 15.7691C100.994 15.5634 102.066 15.669 103.041 16.0726C104.016 16.4763 104.848 17.1599 105.435 18.037C106.021 18.914 106.333 19.9452 106.333 21C106.333 22.4145 105.771 23.771 104.771 24.7712C103.771 25.7714 102.414 26.3333 101 26.3333ZM111.461 12.4592C111.461 12.8389 111.348 13.2102 111.137 13.5259C110.926 13.8416 110.626 14.0877 110.276 14.233C109.925 14.3784 109.539 14.4164 109.166 14.3423C108.794 14.2682 108.452 14.0854 108.183 13.8168C107.915 13.5483 107.732 13.2062 107.658 12.8338C107.584 12.4613 107.622 12.0753 107.767 11.7244C107.912 11.3736 108.158 11.0738 108.474 10.8628C108.79 10.6518 109.161 10.5392 109.541 10.5392C110.05 10.5392 110.538 10.7415 110.898 11.1016C111.259 11.4616 111.461 11.95 111.461 12.4592Z" fill="#28252F" fill-opacity="0.5"/>
</svg>
